<svg width="581" height="214" viewBox="0 0 581 214" fill="none" xmlns="http://www.w3.org/2000/svg">
<path d="M360.968 35.2905C360.85 34.6139 360.404 34.0402 359.777 33.7584L308.741 10.7874C307.998 10.4525 307.127 10.5845 306.517 11.1254L291.5 24.4176L276.483 11.1254C275.873 10.5849 275.002 10.4525 274.259 10.7874L223.222 33.7584C222.596 34.0402 222.15 34.6139 222.031 35.2905C221.913 35.9666 222.137 36.6578 222.63 37.1361L238.751 52.7742L229.661 68.8243C229.099 69.8181 229.446 71.0799 230.438 71.6457L239.272 76.6876V97.3073C239.272 98.0471 239.666 98.7311 240.306 99.101L290.462 128.117C290.784 128.303 291.141 128.396 291.5 128.396C291.842 128.396 292.184 128.309 292.494 128.139C292.494 128.141 292.492 128.143 292.491 128.144L342.694 99.1013C343.334 98.7314 343.728 98.0475 343.728 97.3076V76.6879L352.563 71.646C353.555 71.0802 353.901 69.8185 353.339 68.8246L344.249 52.7745L360.37 37.1364C360.863 36.6578 361.087 35.9666 360.968 35.2905ZM310.016 67.4678L293.572 57.9428V30.5475L337.209 52.4855L310.016 67.4678ZM245.791 52.4858L289.428 30.5475V57.9428L272.984 67.4678L245.791 52.4858ZM227.706 36.2856L274.738 15.1172L287.834 26.7082L241.729 49.8877L227.706 36.2856ZM234.286 69.0701L242.138 55.2058L288.39 80.6886L278.129 94.0916L234.286 69.0701ZM289.428 122.73L243.416 96.1119V79.0534L277.646 98.5889C277.969 98.7731 278.322 98.8615 278.672 98.8615C279.299 98.8615 279.914 98.5772 280.319 98.0487L289.428 86.1519L289.428 122.73ZM291.5 77.6697L277.222 69.8033L291.5 61.5328L305.778 69.8033L291.5 77.6697ZM339.583 96.1119L293.572 122.73V86.1516L302.681 98.0484C303.085 98.5769 303.701 98.8612 304.328 98.8612C304.677 98.8612 305.032 98.7728 305.354 98.5886L339.583 79.0531V96.1119ZM348.714 69.0701L304.872 94.0913L294.61 80.6882L340.862 55.2054L348.714 69.0701ZM341.271 49.8877L295.166 26.7082L308.261 15.1172L355.294 36.2856L341.271 49.8877Z" fill="#515151"/>
<path d="M18.498 157.6C21.5567 157.6 24.2227 158.179 26.496 159.336C28.8107 160.493 30.712 162.105 32.2 164.172C33.688 166.197 34.7833 168.512 35.486 171.116C36.23 173.72 36.602 176.448 36.602 179.3C36.602 183.268 35.9407 186.905 34.618 190.212C33.3367 193.477 31.3527 196.102 28.666 198.086C26.0207 200.029 22.6313 201 18.498 201H2.688C2.192 201 1.758 200.814 1.386 200.442C1.014 200.07 0.828 199.636 0.828 199.14V159.46C0.828 158.964 1.014 158.53 1.386 158.158C1.758 157.786 2.192 157.6 2.688 157.6H18.498ZM17.878 197.342C21.3913 197.342 24.2227 196.536 26.372 194.924C28.5213 193.312 30.092 191.142 31.084 188.414C32.1173 185.645 32.634 182.607 32.634 179.3C32.634 176.903 32.3447 174.629 31.766 172.48C31.2287 170.289 30.3607 168.367 29.162 166.714C28.0047 165.019 26.4753 163.697 24.574 162.746C22.714 161.754 20.482 161.258 17.878 161.258H4.3L4.734 160.7V197.962L4.362 197.342H17.878ZM46.3205 201C45.7418 201 45.2872 200.814 44.9565 200.442C44.6258 200.07 44.4605 199.636 44.4605 199.14V171.364C44.4605 170.868 44.6258 170.434 44.9565 170.062C45.3285 169.69 45.7832 169.504 46.3205 169.504C46.8578 169.504 47.2918 169.69 47.6225 170.062C47.9945 170.434 48.1805 170.868 48.1805 171.364V180.664L47.2505 180.85C47.3745 179.403 47.7258 177.977 48.3045 176.572C48.9245 175.125 49.7512 173.803 50.7845 172.604C51.8178 171.405 53.0372 170.434 54.4425 169.69C55.8892 168.946 57.5012 168.574 59.2785 168.574C60.0225 168.574 60.7458 168.739 61.4485 169.07C62.1512 169.359 62.5025 169.855 62.5025 170.558C62.5025 171.178 62.3372 171.653 62.0065 171.984C61.6758 172.315 61.2832 172.48 60.8285 172.48C60.4565 172.48 60.0432 172.377 59.5885 172.17C59.1752 171.963 58.6172 171.86 57.9145 171.86C56.7572 171.86 55.5998 172.211 54.4425 172.914C53.2852 173.575 52.2312 174.485 51.2805 175.642C50.3298 176.799 49.5652 178.101 48.9865 179.548C48.4492 180.953 48.1805 182.379 48.1805 183.826V199.14C48.1805 199.636 47.9945 200.07 47.6225 200.442C47.2505 200.814 46.8165 201 46.3205 201ZM96.1874 185.128C96.1874 188.269 95.4847 191.101 94.0794 193.622C92.7154 196.102 90.8554 198.065 88.4994 199.512C86.1434 200.917 83.4774 201.62 80.5014 201.62C77.5667 201.62 74.9007 200.917 72.5034 199.512C70.1474 198.065 68.2667 196.102 66.8614 193.622C65.4974 191.101 64.8154 188.269 64.8154 185.128C64.8154 181.945 65.4974 179.114 66.8614 176.634C68.2667 174.154 70.1474 172.191 72.5034 170.744C74.9007 169.297 77.5667 168.574 80.5014 168.574C83.4774 168.574 86.1434 169.297 88.4994 170.744C90.8554 172.191 92.7154 174.154 94.0794 176.634C95.4847 179.114 96.1874 181.945 96.1874 185.128ZM92.4674 185.128C92.4674 182.607 91.9507 180.375 90.9174 178.432C89.8841 176.448 88.4581 174.898 86.6394 173.782C84.8621 172.625 82.8161 172.046 80.5014 172.046C78.2281 172.046 76.1821 172.625 74.3634 173.782C72.5861 174.898 71.1601 176.448 70.0854 178.432C69.0521 180.375 68.5354 182.607 68.5354 185.128C68.5354 187.649 69.0521 189.881 70.0854 191.824C71.1601 193.767 72.5861 195.317 74.3634 196.474C76.1821 197.59 78.2281 198.148 80.5014 198.148C82.8161 198.148 84.8621 197.59 86.6394 196.474C88.4581 195.317 89.8841 193.767 90.9174 191.824C91.9507 189.881 92.4674 187.649 92.4674 185.128ZM118.862 169.07C121.673 169.07 124.153 169.773 126.302 171.178C128.493 172.542 130.229 174.443 131.51 176.882C132.792 179.279 133.432 182.049 133.432 185.19C133.432 188.331 132.792 191.121 131.51 193.56C130.229 195.999 128.493 197.921 126.302 199.326C124.112 200.731 121.652 201.434 118.924 201.434C117.478 201.434 116.093 201.227 114.77 200.814C113.489 200.359 112.311 199.76 111.236 199.016C110.162 198.272 109.211 197.404 108.384 196.412C107.558 195.379 106.896 194.263 106.4 193.064L107.516 192.258V211.54C107.516 212.036 107.33 212.47 106.958 212.842C106.628 213.214 106.194 213.4 105.656 213.4C105.119 213.4 104.664 213.214 104.292 212.842C103.962 212.47 103.796 212.036 103.796 211.54V171.116C103.796 170.579 103.962 170.124 104.292 169.752C104.623 169.38 105.078 169.194 105.656 169.194C106.194 169.194 106.628 169.38 106.958 169.752C107.33 170.124 107.516 170.579 107.516 171.116V177.812L106.648 177.316C107.062 176.035 107.661 174.898 108.446 173.906C109.273 172.873 110.224 172.005 111.298 171.302C112.373 170.558 113.551 170 114.832 169.628C116.114 169.256 117.457 169.07 118.862 169.07ZM118.552 172.542C116.32 172.542 114.357 173.1 112.662 174.216C110.968 175.291 109.624 176.779 108.632 178.68C107.682 180.54 107.206 182.71 107.206 185.19C107.206 187.629 107.682 189.819 108.632 191.762C109.624 193.705 110.968 195.234 112.662 196.35C114.357 197.425 116.32 197.962 118.552 197.962C120.743 197.962 122.665 197.425 124.318 196.35C126.013 195.234 127.356 193.705 128.348 191.762C129.34 189.819 129.836 187.629 129.836 185.19C129.836 182.751 129.34 180.581 128.348 178.68C127.356 176.779 126.013 175.291 124.318 174.216C122.665 173.1 120.743 172.542 118.552 172.542ZM156.248 195.978C155.918 195.482 155.752 195.007 155.752 194.552C155.794 194.056 156.062 193.663 156.558 193.374C156.889 193.085 157.261 192.961 157.674 193.002C158.129 193.043 158.542 193.25 158.914 193.622C160.03 195.069 161.374 196.247 162.944 197.156C164.556 198.024 166.458 198.458 168.648 198.458C169.806 198.458 170.942 198.272 172.058 197.9C173.216 197.487 174.166 196.887 174.91 196.102C175.654 195.275 176.026 194.242 176.026 193.002C176.026 191.721 175.654 190.687 174.91 189.902C174.166 189.117 173.195 188.497 171.996 188.042C170.839 187.587 169.599 187.195 168.276 186.864C166.871 186.492 165.507 186.079 164.184 185.624C162.862 185.128 161.684 184.529 160.65 183.826C159.658 183.082 158.852 182.193 158.232 181.16C157.612 180.127 157.302 178.866 157.302 177.378C157.302 175.642 157.778 174.113 158.728 172.79C159.679 171.467 160.96 170.434 162.572 169.69C164.226 168.946 166.086 168.574 168.152 168.574C169.186 168.574 170.302 168.719 171.5 169.008C172.699 169.256 173.877 169.69 175.034 170.31C176.192 170.93 177.225 171.777 178.134 172.852C178.506 173.224 178.692 173.658 178.692 174.154C178.692 174.609 178.486 175.022 178.072 175.394C177.742 175.642 177.349 175.766 176.894 175.766C176.481 175.766 176.13 175.601 175.84 175.27C174.848 174.154 173.67 173.307 172.306 172.728C170.942 172.149 169.475 171.86 167.904 171.86C166.706 171.86 165.569 172.067 164.494 172.48C163.461 172.852 162.593 173.431 161.89 174.216C161.188 175.001 160.836 176.035 160.836 177.316C160.919 178.515 161.332 179.486 162.076 180.23C162.862 180.974 163.874 181.594 165.114 182.09C166.396 182.586 167.822 183.041 169.392 183.454C170.715 183.785 171.976 184.177 173.174 184.632C174.414 185.087 175.489 185.665 176.398 186.368C177.349 187.029 178.093 187.877 178.63 188.91C179.209 189.943 179.498 191.245 179.498 192.816C179.498 194.635 178.982 196.205 177.948 197.528C176.956 198.851 175.613 199.863 173.918 200.566C172.224 201.269 170.343 201.62 168.276 201.62C166.044 201.62 163.874 201.186 161.766 200.318C159.7 199.45 157.86 198.003 156.248 195.978ZM216.373 185.128C216.373 188.269 215.67 191.101 214.265 193.622C212.901 196.102 211.041 198.065 208.685 199.512C206.329 200.917 203.663 201.62 200.687 201.62C197.752 201.62 195.086 200.917 192.689 199.512C190.333 198.065 188.452 196.102 187.047 193.622C185.683 191.101 185.001 188.269 185.001 185.128C185.001 181.945 185.683 179.114 187.047 176.634C188.452 174.154 190.333 172.191 192.689 170.744C195.086 169.297 197.752 168.574 200.687 168.574C203.663 168.574 206.329 169.297 208.685 170.744C211.041 172.191 212.901 174.154 214.265 176.634C215.67 179.114 216.373 181.945 216.373 185.128ZM212.653 185.128C212.653 182.607 212.136 180.375 211.103 178.432C210.07 176.448 208.644 174.898 206.825 173.782C205.048 172.625 203.002 172.046 200.687 172.046C198.414 172.046 196.368 172.625 194.549 173.782C192.772 174.898 191.346 176.448 190.271 178.432C189.238 180.375 188.721 182.607 188.721 185.128C188.721 187.649 189.238 189.881 190.271 191.824C191.346 193.767 192.772 195.317 194.549 196.474C196.368 197.59 198.414 198.148 200.687 198.148C203.002 198.148 205.048 197.59 206.825 196.474C208.644 195.317 210.07 193.767 211.103 191.824C212.136 189.881 212.653 187.649 212.653 185.128ZM238.242 169.07C240.805 169.07 242.995 169.752 244.814 171.116C246.633 172.439 247.873 174.423 248.534 177.068L247.666 177.316L248.038 176.2C248.575 174.96 249.464 173.803 250.704 172.728C251.985 171.612 253.432 170.723 255.044 170.062C256.656 169.401 258.289 169.07 259.942 169.07C262.546 169.07 264.633 169.628 266.204 170.744C267.816 171.86 268.973 173.369 269.676 175.27C270.42 177.13 270.792 179.238 270.792 181.594V199.14C270.792 199.636 270.606 200.07 270.234 200.442C269.903 200.814 269.469 201 268.932 201C268.395 201 267.94 200.814 267.568 200.442C267.237 200.07 267.072 199.636 267.072 199.14V181.78C267.072 180.085 266.803 178.535 266.266 177.13C265.729 175.725 264.881 174.609 263.724 173.782C262.567 172.955 261.017 172.542 259.074 172.542C257.379 172.542 255.747 172.955 254.176 173.782C252.647 174.609 251.386 175.725 250.394 177.13C249.443 178.535 248.968 180.085 248.968 181.78V199.14C248.968 199.636 248.782 200.07 248.41 200.442C248.079 200.814 247.645 201 247.108 201C246.571 201 246.116 200.814 245.744 200.442C245.413 200.07 245.248 199.636 245.248 199.14V181.594C245.248 179.899 245 178.37 244.504 177.006C244.008 175.642 243.202 174.567 242.086 173.782C240.97 172.955 239.461 172.542 237.56 172.542C235.865 172.542 234.253 172.955 232.724 173.782C231.236 174.567 230.017 175.642 229.066 177.006C228.157 178.37 227.702 179.899 227.702 181.594V199.14C227.702 199.636 227.516 200.07 227.144 200.442C226.772 200.814 226.338 201 225.842 201C225.263 201 224.809 200.814 224.478 200.442C224.147 200.07 223.982 199.636 223.982 199.14V171.364C223.982 170.868 224.147 170.434 224.478 170.062C224.85 169.69 225.305 169.504 225.842 169.504C226.379 169.504 226.813 169.69 227.144 170.062C227.516 170.434 227.702 170.868 227.702 171.364V177.13L226.028 179.424C226.152 178.184 226.545 176.944 227.206 175.704C227.909 174.464 228.818 173.348 229.934 172.356C231.05 171.364 232.311 170.579 233.716 170C235.163 169.38 236.671 169.07 238.242 169.07ZM294.607 201.62C291.424 201.62 288.613 200.938 286.175 199.574C283.736 198.21 281.835 196.309 280.471 193.87C279.107 191.431 278.425 188.579 278.425 185.314C278.425 181.801 279.107 178.804 280.471 176.324C281.876 173.844 283.674 171.943 285.865 170.62C288.097 169.256 290.453 168.574 292.933 168.574C294.751 168.574 296.508 168.905 298.203 169.566C299.939 170.186 301.468 171.137 302.791 172.418C304.113 173.658 305.188 175.187 306.015 177.006C306.841 178.825 307.275 180.933 307.317 183.33C307.317 183.826 307.131 184.26 306.759 184.632C306.387 184.963 305.953 185.128 305.457 185.128H280.595L279.851 181.78H304.279L303.473 182.524V181.284C303.266 179.341 302.625 177.688 301.551 176.324C300.476 174.96 299.174 173.927 297.645 173.224C296.157 172.521 294.586 172.17 292.933 172.17C291.693 172.17 290.411 172.418 289.089 172.914C287.807 173.41 286.629 174.195 285.555 175.27C284.521 176.303 283.674 177.647 283.013 179.3C282.351 180.912 282.021 182.834 282.021 185.066C282.021 187.505 282.517 189.716 283.509 191.7C284.501 193.684 285.927 195.255 287.787 196.412C289.647 197.569 291.899 198.148 294.545 198.148C295.95 198.148 297.231 197.941 298.389 197.528C299.546 197.115 300.559 196.577 301.427 195.916C302.336 195.213 303.08 194.49 303.659 193.746C304.113 193.374 304.547 193.188 304.961 193.188C305.415 193.188 305.787 193.353 306.077 193.684C306.407 194.015 306.573 194.387 306.573 194.8C306.573 195.296 306.366 195.73 305.953 196.102C304.713 197.59 303.101 198.892 301.117 200.008C299.133 201.083 296.963 201.62 294.607 201.62ZM343.407 155.368C344.027 155.368 344.688 155.43 345.391 155.554C346.135 155.678 346.776 155.905 347.313 156.236C347.85 156.525 348.119 156.98 348.119 157.6C348.119 158.055 347.954 158.468 347.623 158.84C347.292 159.171 346.92 159.336 346.507 159.336C346.094 159.336 345.577 159.233 344.957 159.026C344.337 158.778 343.676 158.654 342.973 158.654C342.105 158.654 341.361 158.861 340.741 159.274C340.121 159.646 339.646 160.204 339.315 160.948C338.984 161.651 338.819 162.519 338.819 163.552V199.14C338.819 199.636 338.633 200.07 338.261 200.442C337.93 200.814 337.496 201 336.959 201C336.422 201 335.967 200.814 335.595 200.442C335.264 200.07 335.099 199.636 335.099 199.14V163.552C335.099 160.907 335.864 158.881 337.393 157.476C338.964 156.071 340.968 155.368 343.407 155.368ZM345.763 169.938C346.259 169.938 346.672 170.103 347.003 170.434C347.334 170.765 347.499 171.178 347.499 171.674C347.499 172.17 347.334 172.583 347.003 172.914C346.672 173.245 346.259 173.41 345.763 173.41H330.573C330.118 173.41 329.705 173.245 329.333 172.914C329.002 172.542 328.837 172.129 328.837 171.674C328.837 171.137 329.002 170.723 329.333 170.434C329.705 170.103 330.118 169.938 330.573 169.938H345.763ZM357.419 199.14C357.419 199.636 357.233 200.07 356.861 200.442C356.489 200.814 356.055 201 355.559 201C355.022 201 354.567 200.814 354.195 200.442C353.864 200.07 353.699 199.636 353.699 199.14V170.62C353.699 170.124 353.864 169.69 354.195 169.318C354.567 168.946 355.022 168.76 355.559 168.76C356.096 168.76 356.53 168.946 356.861 169.318C357.233 169.69 357.419 170.124 357.419 170.62V199.14ZM355.559 164.606C354.691 164.606 354.03 164.42 353.575 164.048C353.162 163.635 352.955 163.056 352.955 162.312V161.692C352.955 160.948 353.182 160.39 353.637 160.018C354.133 159.605 354.794 159.398 355.621 159.398C356.406 159.398 357.006 159.605 357.419 160.018C357.874 160.39 358.101 160.948 358.101 161.692V162.312C358.101 163.056 357.874 163.635 357.419 164.048C357.006 164.42 356.386 164.606 355.559 164.606ZM371.207 199.14C371.207 199.636 371.021 200.07 370.649 200.442C370.277 200.814 369.843 201 369.347 201C368.809 201 368.355 200.814 367.983 200.442C367.652 200.07 367.487 199.636 367.487 199.14V156.98C367.487 156.484 367.673 156.05 368.045 155.678C368.417 155.306 368.851 155.12 369.347 155.12C369.884 155.12 370.318 155.306 370.649 155.678C371.021 156.05 371.207 156.484 371.207 156.98V199.14ZM394.872 201.62C391.69 201.62 388.879 200.938 386.44 199.574C384.002 198.21 382.1 196.309 380.736 193.87C379.372 191.431 378.69 188.579 378.69 185.314C378.69 181.801 379.372 178.804 380.736 176.324C382.142 173.844 383.94 171.943 386.13 170.62C388.362 169.256 390.718 168.574 393.198 168.574C395.017 168.574 396.774 168.905 398.468 169.566C400.204 170.186 401.734 171.137 403.056 172.418C404.379 173.658 405.454 175.187 406.28 177.006C407.107 178.825 407.541 180.933 407.582 183.33C407.582 183.826 407.396 184.26 407.024 184.632C406.652 184.963 406.218 185.128 405.722 185.128H380.86L380.116 181.78H404.544L403.738 182.524V181.284C403.532 179.341 402.891 177.688 401.816 176.324C400.742 174.96 399.44 173.927 397.91 173.224C396.422 172.521 394.852 172.17 393.198 172.17C391.958 172.17 390.677 172.418 389.354 172.914C388.073 173.41 386.895 174.195 385.82 175.27C384.787 176.303 383.94 177.647 383.278 179.3C382.617 180.912 382.286 182.834 382.286 185.066C382.286 187.505 382.782 189.716 383.774 191.7C384.766 193.684 386.192 195.255 388.052 196.412C389.912 197.569 392.165 198.148 394.81 198.148C396.216 198.148 397.497 197.941 398.654 197.528C399.812 197.115 400.824 196.577 401.692 195.916C402.602 195.213 403.346 194.49 403.924 193.746C404.379 193.374 404.813 193.188 405.226 193.188C405.681 193.188 406.053 193.353 406.342 193.684C406.673 194.015 406.838 194.387 406.838 194.8C406.838 195.296 406.632 195.73 406.218 196.102C404.978 197.59 403.366 198.892 401.382 200.008C399.398 201.083 397.228 201.62 394.872 201.62ZM413.452 195.978C413.121 195.482 412.956 195.007 412.956 194.552C412.997 194.056 413.266 193.663 413.762 193.374C414.092 193.085 414.464 192.961 414.878 193.002C415.332 193.043 415.746 193.25 416.118 193.622C417.234 195.069 418.577 196.247 420.148 197.156C421.76 198.024 423.661 198.458 425.852 198.458C427.009 198.458 428.146 198.272 429.262 197.9C430.419 197.487 431.37 196.887 432.114 196.102C432.858 195.275 433.23 194.242 433.23 193.002C433.23 191.721 432.858 190.687 432.114 189.902C431.37 189.117 430.398 188.497 429.2 188.042C428.042 187.587 426.802 187.195 425.48 186.864C424.074 186.492 422.71 186.079 421.388 185.624C420.065 185.128 418.887 184.529 417.854 183.826C416.862 183.082 416.056 182.193 415.436 181.16C414.816 180.127 414.506 178.866 414.506 177.378C414.506 175.642 414.981 174.113 415.932 172.79C416.882 171.467 418.164 170.434 419.776 169.69C421.429 168.946 423.289 168.574 425.356 168.574C426.389 168.574 427.505 168.719 428.704 169.008C429.902 169.256 431.08 169.69 432.238 170.31C433.395 170.93 434.428 171.777 435.338 172.852C435.71 173.224 435.896 173.658 435.896 174.154C435.896 174.609 435.689 175.022 435.276 175.394C434.945 175.642 434.552 175.766 434.098 175.766C433.684 175.766 433.333 175.601 433.044 175.27C432.052 174.154 430.874 173.307 429.51 172.728C428.146 172.149 426.678 171.86 425.108 171.86C423.909 171.86 422.772 172.067 421.698 172.48C420.664 172.852 419.796 173.431 419.094 174.216C418.391 175.001 418.04 176.035 418.04 177.316C418.122 178.515 418.536 179.486 419.28 180.23C420.065 180.974 421.078 181.594 422.318 182.09C423.599 182.586 425.025 183.041 426.596 183.454C427.918 183.785 429.179 184.177 430.378 184.632C431.618 185.087 432.692 185.665 433.602 186.368C434.552 187.029 435.296 187.877 435.834 188.91C436.412 189.943 436.702 191.245 436.702 192.816C436.702 194.635 436.185 196.205 435.152 197.528C434.16 198.851 432.816 199.863 431.122 200.566C429.427 201.269 427.546 201.62 425.48 201.62C423.248 201.62 421.078 201.186 418.97 200.318C416.903 199.45 415.064 198.003 413.452 195.978ZM475.711 169.07C478.315 169.07 480.423 169.628 482.035 170.744C483.647 171.86 484.825 173.369 485.569 175.27C486.355 177.171 486.747 179.279 486.747 181.594V199.14C486.747 199.636 486.561 200.07 486.189 200.442C485.817 200.814 485.383 201 484.887 201C484.309 201 483.854 200.814 483.523 200.442C483.193 200.07 483.027 199.636 483.027 199.14V181.594C483.027 179.899 482.759 178.37 482.221 177.006C481.725 175.642 480.899 174.567 479.741 173.782C478.584 172.955 477.034 172.542 475.091 172.542C473.355 172.542 471.702 172.955 470.131 173.782C468.602 174.567 467.362 175.642 466.411 177.006C465.461 178.37 464.985 179.899 464.985 181.594V199.14C464.985 199.636 464.799 200.07 464.427 200.442C464.055 200.814 463.621 201 463.125 201C462.547 201 462.092 200.814 461.761 200.442C461.431 200.07 461.265 199.636 461.265 199.14V156.98C461.265 156.484 461.431 156.05 461.761 155.678C462.133 155.306 462.588 155.12 463.125 155.12C463.663 155.12 464.097 155.306 464.427 155.678C464.799 156.05 464.985 156.484 464.985 156.98V177.068L463.559 179.238C463.642 177.957 464.035 176.717 464.737 175.518C465.481 174.278 466.432 173.183 467.589 172.232C468.747 171.24 470.028 170.475 471.433 169.938C472.839 169.359 474.265 169.07 475.711 169.07ZM510.577 201.62C507.395 201.62 504.584 200.938 502.145 199.574C499.707 198.21 497.805 196.309 496.441 193.87C495.077 191.431 494.395 188.579 494.395 185.314C494.395 181.801 495.077 178.804 496.441 176.324C497.847 173.844 499.645 171.943 501.835 170.62C504.067 169.256 506.423 168.574 508.903 168.574C510.722 168.574 512.479 168.905 514.173 169.566C515.909 170.186 517.439 171.137 518.761 172.418C520.084 173.658 521.159 175.187 521.985 177.006C522.812 178.825 523.246 180.933 523.287 183.33C523.287 183.826 523.101 184.26 522.729 184.632C522.357 184.963 521.923 185.128 521.427 185.128H496.565L495.821 181.78H520.249L519.443 182.524V181.284C519.237 179.341 518.596 177.688 517.521 176.324C516.447 174.96 515.145 173.927 513.615 173.224C512.127 172.521 510.557 172.17 508.903 172.17C507.663 172.17 506.382 172.418 505.059 172.914C503.778 173.41 502.6 174.195 501.525 175.27C500.492 176.303 499.645 177.647 498.983 179.3C498.322 180.912 497.991 182.834 497.991 185.066C497.991 187.505 498.487 189.716 499.479 191.7C500.471 193.684 501.897 195.255 503.757 196.412C505.617 197.569 507.87 198.148 510.515 198.148C511.921 198.148 513.202 197.941 514.359 197.528C515.517 197.115 516.529 196.577 517.397 195.916C518.307 195.213 519.051 194.49 519.629 193.746C520.084 193.374 520.518 193.188 520.931 193.188C521.386 193.188 521.758 193.353 522.047 193.684C522.378 194.015 522.543 194.387 522.543 194.8C522.543 195.296 522.337 195.73 521.923 196.102C520.683 197.59 519.071 198.892 517.087 200.008C515.103 201.083 512.933 201.62 510.577 201.62ZM532.815 201C532.236 201 531.781 200.814 531.451 200.442C531.12 200.07 530.955 199.636 530.955 199.14V171.364C530.955 170.868 531.12 170.434 531.451 170.062C531.823 169.69 532.277 169.504 532.815 169.504C533.352 169.504 533.786 169.69 534.117 170.062C534.489 170.434 534.675 170.868 534.675 171.364V180.664L533.745 180.85C533.869 179.403 534.22 177.977 534.799 176.572C535.419 175.125 536.245 173.803 537.279 172.604C538.312 171.405 539.531 170.434 540.937 169.69C542.383 168.946 543.995 168.574 545.773 168.574C546.517 168.574 547.24 168.739 547.943 169.07C548.645 169.359 548.997 169.855 548.997 170.558C548.997 171.178 548.831 171.653 548.501 171.984C548.17 172.315 547.777 172.48 547.323 172.48C546.951 172.48 546.537 172.377 546.083 172.17C545.669 171.963 545.111 171.86 544.409 171.86C543.251 171.86 542.094 172.211 540.937 172.914C539.779 173.575 538.725 174.485 537.775 175.642C536.824 176.799 536.059 178.101 535.481 179.548C534.943 180.953 534.675 182.379 534.675 183.826V199.14C534.675 199.636 534.489 200.07 534.117 200.442C533.745 200.814 533.311 201 532.815 201ZM567.492 201.62C564.309 201.62 561.498 200.938 559.06 199.574C556.621 198.21 554.72 196.309 553.356 193.87C551.992 191.431 551.31 188.579 551.31 185.314C551.31 181.801 551.992 178.804 553.356 176.324C554.761 173.844 556.559 171.943 558.75 170.62C560.982 169.256 563.338 168.574 565.818 168.574C567.636 168.574 569.393 168.905 571.088 169.566C572.824 170.186 574.353 171.137 575.676 172.418C576.998 173.658 578.073 175.187 578.9 177.006C579.726 178.825 580.16 180.933 580.202 183.33C580.202 183.826 580.016 184.26 579.644 184.632C579.272 184.963 578.838 185.128 578.342 185.128H553.48L552.736 181.78H577.164L576.358 182.524V181.284C576.151 179.341 575.51 177.688 574.436 176.324C573.361 174.96 572.059 173.927 570.53 173.224C569.042 172.521 567.471 172.17 565.818 172.17C564.578 172.17 563.296 172.418 561.974 172.914C560.692 173.41 559.514 174.195 558.44 175.27C557.406 176.303 556.559 177.647 555.898 179.3C555.236 180.912 554.906 182.834 554.906 185.066C554.906 187.505 555.402 189.716 556.394 191.7C557.386 193.684 558.812 195.255 560.672 196.412C562.532 197.569 564.784 198.148 567.43 198.148C568.835 198.148 570.116 197.941 571.274 197.528C572.431 197.115 573.444 196.577 574.312 195.916C575.221 195.213 575.965 194.49 576.544 193.746C576.998 193.374 577.432 193.188 577.846 193.188C578.3 193.188 578.672 193.353 578.962 193.684C579.292 194.015 579.458 194.387 579.458 194.8C579.458 195.296 579.251 195.73 578.838 196.102C577.598 197.59 575.986 198.892 574.002 200.008C572.018 201.083 569.848 201.62 567.492 201.62Z" fill="#515151"/>
</svg>