<svg width="260" height="268" viewBox="0 0 260 268" fill="none" xmlns="http://www.w3.org/2000/svg">
<path d="M129.868 0C124.185 0 119.579 4.21143 119.579 9.40735V190.553L84.4054 158.393C80.3974 154.729 73.8771 154.729 69.8692 158.393C65.8613 162.058 65.8613 168.02 69.8692 171.684L122.57 219.869C124.544 221.674 127.176 222.604 129.808 222.604C132.44 222.604 135.072 221.674 137.047 219.869L189.748 171.684C193.755 168.02 193.755 162.058 189.748 158.393C185.74 154.729 179.219 154.729 175.211 158.393L140.038 190.553V9.35265C140.097 4.15673 135.551 0 129.868 0Z" fill="#EFEFEF"/>
<path d="M259.736 258.648V204.118C259.736 198.922 255.13 194.711 249.447 194.711C243.765 194.711 239.158 198.922 239.158 204.118V249.295H20.5181V204.118C20.5181 198.922 15.912 194.711 10.289 194.711C4.66592 194.711 0 198.922 0 204.118V258.648C0 263.843 4.6061 268 10.289 268H249.447C255.13 268 259.736 263.843 259.736 258.648Z" fill="#EFEFEF"/>
</svg>
